<?xml version="1.0" encoding="UTF-8"?>
<!DOCTYPE svg PUBLIC "-//W3C//DTD SVG 1.1//EN" "http://www.w3.org/Graphics/SVG/1.1/DTD/svg11.dtd">
<!-- Creator: CorelDRAW 2020 (64-Bit) -->
<svg xmlns="http://www.w3.org/2000/svg" xml:space="preserve" width="30mm" height="22mm" version="1.1" style="shape-rendering:geometricPrecision; text-rendering:geometricPrecision; image-rendering:optimizeQuality; fill-rule:evenodd; clip-rule:evenodd"
viewBox="0 0 3000 2200"
 xmlns:xlink="http://www.w3.org/1999/xlink"
 xmlns:xodm="http://www.corel.com/coreldraw/odm/2003">
 <defs>
  <style type="text/css">
   <![CDATA[
    .str0 {stroke:black;stroke-width:52.92;stroke-miterlimit:22.9256}
    .str1 {stroke:black;stroke-width:20;stroke-miterlimit:22.9256}
    .fil2 {fill:black}
    .fil0 {fill:aqua}
    .fil1 {fill:yellow}
    .fil3 {fill:black;fill-rule:nonzero}
   ]]>
  </style>
 </defs>
 <g id="Слой_x0020_1">
  <metadata id="CorelCorpID_0Corel-Layer"/>
  <g id="_1818297675040">
   <polygon class="fil0 str0" points="53.87,237.56 1183.36,237.56 1813.67,237.56 2943.19,237.56 2943.19,2166.58 53.87,2166.58 "/>
   <circle class="fil1 str1" cx="1498.54" cy="1201.14" r="735.26"/>
   <rect class="fil2 str1" x="1190.43" y="31.1" width="630.33" height="198.83"/>
   <path class="fil3" d="M1176.57 1173.82c14.41,-4.97 76.54,6.96 88.47,15.9 -1.99,84 45.23,172.97 126.25,212.73 1.49,13.92 -18.39,75.55 -29.82,86.99 -114.32,-48.22 -200.81,-194.34 -184.9,-315.62z"/>
   <path class="fil3" d="M1636.12 1488.53c-11.51,-10 -32.24,-69.78 -30.47,-84.57 73.75,-40.28 127.19,-125.66 121.11,-215.7 11.31,-8.25 74.62,-21.86 90.24,-17.67 15.41,123.11 -67.9,271.07 -180.89,317.94l0.01 0z"/>
   <path class="fil3" d="M1680.32 935.16c-2.9,14.97 -44.3,62.8 -58.01,68.66 -71.76,-43.72 -172.42,-47.31 -247.36,2.97 -12.79,-5.67 -56.23,-53.7 -60.41,-69.31 98.91,-74.9 268.7,-76.73 365.78,-2.32z"/>
   <path class="fil3" d="M1406.89 1268.23l35.84 -23.33c44.17,42.5 91.67,25 109.18,0l39.17 22.5c-59.17,134.18 -5.84,240.86 78.34,308.36 84.18,67.51 253.36,53.34 327.54,-45.84l19.17 12.51c-16.67,50.83 -161.69,148.35 -285.03,144.18 -123.35,-4.17 -199.19,-41.68 -230.86,-77.51 -39.17,35.83 -135.02,81.68 -231.7,81.68 -96.67,0 -204.17,-40.01 -288.35,-143.35l23.33 -15c128.34,132.51 267.53,83.34 334.2,35.83 66.67,-47.5 132.52,-180.85 69.18,-300.03l-0.01 0z"/>
   <path class="fil3" d="M1604.28 1244.4l-38.13 -19.37c14.73,-59.52 -24.19,-91.9 -54.59,-94.55l-0.1 -45.17c145.79,-15.85 211.51,-115.38 227.88,-222.03 16.38,-106.65 -80.48,-246.09 -203.46,-260.74l1.24 -22.85c52.36,-10.99 209.32,65.85 267.38,174.76 58.07,108.9 63.51,193.33 48.31,238.68 50.62,16.01 138.25,76.09 186.59,159.8 48.33,83.72 67.44,196.84 20.03,321.41l-24.66 -12.71c50.59,-177.42 -61.59,-273.36 -136.06,-307.35 -74.47,-33.99 -222.88,-24.34 -294.43,90.11l0 0.01z"/>
   <path class="fil3" d="M1488.14 1085.25l2.29 42.7c-58.9,17 -67.5,66.89 -54.59,94.55l-39.08 22.67c-86.62,-118.33 -205.67,-125.48 -306.21,-86.33 -100.55,39.14 -172.88,192.74 -124.08,306.57l-20.4 10.35c-35.7,-39.85 -47.64,-214.2 17.64,-318.94 65.28,-104.72 135.69,-151.65 182.55,-161.16 -11.45,-51.84 -3.23,-157.77 45.11,-241.5 48.34,-83.72 136.74,-156.83 268.32,-178.05l1.33 27.71c-178.93,44.9 -205.94,190.02 -198.14,271.51 7.79,81.5 90.37,205.19 225.25,209.92l0.01 0z"/>
  </g>
 </g>
</svg>
