<?xml version="1.0" encoding="UTF-8"?>
<!DOCTYPE svg PUBLIC "-//W3C//DTD SVG 1.1//EN" "http://www.w3.org/Graphics/SVG/1.1/DTD/svg11.dtd">
<!-- Creator: CorelDRAW 2020 (64-Bit) -->
<svg xmlns="http://www.w3.org/2000/svg" xml:space="preserve" width="30mm" height="13mm" version="1.1" style="shape-rendering:geometricPrecision; text-rendering:geometricPrecision; image-rendering:optimizeQuality; fill-rule:evenodd; clip-rule:evenodd"
viewBox="0 0 3000 1300"
 xmlns:xlink="http://www.w3.org/1999/xlink"
 xmlns:xodm="http://www.corel.com/coreldraw/odm/2003">
 <defs>
  <style type="text/css">
   <![CDATA[
    .str1 {stroke:black;stroke-width:26.46;stroke-miterlimit:22.9256}
    .str0 {stroke:black;stroke-width:20;stroke-miterlimit:22.9256}
    .fil1 {fill:black}
    .fil2 {fill:black}
    .fil0 {fill:aqua}
    .fil3 {fill:black;fill-rule:nonzero}
   ]]>
  </style>
 </defs>
 <g id="Слой_x0020_1">
  <metadata id="CorelCorpID_0Corel-Layer"/>
  <g id="_2204198573776">
   <rect class="fil0 str0" x="90.38" y="289.27" width="1183.98" height="723.37"/>
   <path class="fil1" d="M440.23 451.55c85.79,3 165.3,37.74 230.61,93.34 -93.32,82.34 -154.89,202.01 -160.84,334.01l15.33 -0.91c13.63,-125.92 74.13,-241.27 161.46,-318.87 82.57,77.4 139.44,189.19 152.62,310.81l15.33 0.91c-5.76,-127.56 -63.46,-243.6 -151.58,-325.58 63.5,-51.1 139.57,-82.8 221.35,-85.66 -16.27,16.79 -26.28,39.66 -26.28,64.89 0,51.51 41.77,93.3 93.3,93.3 51.52,0 93.31,-41.79 93.31,-93.3 0.4,-59.4 -39.05,-96.64 -107.05,-93.16 -108.72,-3.03 -210.11,35.02 -290.56,99.76 -81.91,-69.63 -187.13,-110.96 -300.28,-107.82 -68,-3.47 -107.47,33.77 -107.05,93.17 0,51.52 41.77,93.29 93.31,93.29 51.51,0 93.3,-41.77 93.3,-93.29 0,-25.22 -10.02,-48.1 -26.28,-64.89z"/>
   <path class="fil2 str0" d="M40.95 239.68l1282.8 0 0 819.31 -1282.8 0 0 -819.31zm48.83 772.4l1184.58 0.57 0 -726.62 -1183.98 3.25 -0.6 722.8z"/>
   <path class="fil3 str1" d="M2368.07 72.72l-1007.94 448.48 -8.84 -19.86 1007.94 -448.48 15.28 9.98 -6.44 9.88zm-8.84 -19.86l15.37 -6.84 -0.09 16.82 -15.28 -9.98zm-8.02 321.84l1.58 -311.96 21.72 0.1 -1.57 311.97 -6.4 9.84 -15.33 -9.95zm15.33 9.95l-15.42 6.95 0.09 -16.9 15.33 9.95zm415.02 -187.32l-415.02 187.32 -8.93 -19.79 415.02 -187.33 8.93 19.8zm-60.52 -95.38l208.85 16.52 -125.77 167.55 -83.08 -184.07z"/>
   <path class="fil3 str1" d="M2356.77 1251l-1007.94 -448.48 8.84 -19.86 1007.95 448.48 6.44 9.88 -15.29 9.98zm15.29 -9.98l0.08 16.82 -15.37 -6.84 15.29 -9.98zm-1.58 -311.97l1.58 311.97 -21.73 0.1 -1.57 -311.96 15.32 -9.95 6.4 9.84zm-21.72 0.11l-0.09 -16.9 15.41 6.95 -15.32 9.95zm421.42 197.17l-415.03 -187.33 8.93 -19.79 415.02 187.32 -8.92 19.8zm31.49 -108.49l125.76 167.55 -208.84 16.52 83.08 -184.07z"/>
  </g>
 </g>
</svg>
