<?xml version="1.0" encoding="UTF-8"?>
<!DOCTYPE svg PUBLIC "-//W3C//DTD SVG 1.1//EN" "http://www.w3.org/Graphics/SVG/1.1/DTD/svg11.dtd">
<!-- Creator: CorelDRAW 2020 (64-Bit) -->
<svg xmlns="http://www.w3.org/2000/svg" xml:space="preserve" width="30mm" height="22mm" version="1.1" style="shape-rendering:geometricPrecision; text-rendering:geometricPrecision; image-rendering:optimizeQuality; fill-rule:evenodd; clip-rule:evenodd"
viewBox="0 0 3000 2200"
 xmlns:xlink="http://www.w3.org/1999/xlink"
 xmlns:xodm="http://www.corel.com/coreldraw/odm/2003">
 <defs>
  <style type="text/css">
   <![CDATA[
    .str0 {stroke:black;stroke-width:52.92;stroke-miterlimit:22.9256}
    .str1 {stroke:black;stroke-width:20;stroke-miterlimit:22.9256}
    .fil2 {fill:black}
    .fil0 {fill:aqua}
    .fil1 {fill:yellow}
    .fil3 {fill:black;fill-rule:nonzero}
   ]]>
  </style>
 </defs>
 <g id="Слой_x0020_1">
  <metadata id="CorelCorpID_0Corel-Layer"/>
  <polygon class="fil0 str0" points="48.26,238.71 1177.76,238.71 1808.07,238.71 2937.59,238.71 2937.59,2167.74 48.26,2167.74 "/>
  <circle class="fil1 str1" cx="1492.94" cy="1202.3" r="735.26"/>
  <rect class="fil2 str1" x="1184.83" y="32.26" width="630.33" height="198.83"/>
  <g id="_1527363887376">
   <path class="fil3" d="M1492.56 1323.92c-68.7,0 -125.47,-56.03 -125.47,-125.53 0,-68.72 56.77,-125.49 125.47,-125.49 69.45,0 126.22,56.77 126.22,125.49 0,69.5 -56.77,125.53 -126.22,125.53l0 0z"/>
   <path class="fil3" d="M1304.38 1194.68c2.22,-62.78 34.35,-121.78 85.87,-153.92l-263.62 -409.39c-189.68,117.29 -312.9,334.69 -312.9,563.31l490.65 0 0 0z"/>
   <path class="fil3" d="M1681.51 1194.68c-2.24,-62.78 -34.34,-121.78 -85.89,-153.92l263.64 -409.39c189.66,117.29 312.88,334.69 312.88,563.31l-490.63 0 0 0z"/>
   <path class="fil3" d="M1408.17 1366.48c56.02,28.39 123.23,28.39 175.49,-1.49l233 428.06c-193.41,109.82 -443.58,113.55 -643.73,3.72l235.24 -430.29 0 0z"/>
  </g>
 </g>
</svg>
